<svg width="32" height="32" viewBox="0 0 32 32" fill="none" xmlns="http://www.w3.org/2000/svg">
<mask id="mask0_939_3257" style="mask-type:alpha" maskUnits="userSpaceOnUse" x="0" y="0" width="32" height="32">
<rect width="32" height="32" fill="#D9D9D9"/>
</mask>
<g mask="url(#mask0_939_3257)">
<path d="M16 16C16.7334 16 17.3612 15.7389 17.8834 15.2167C18.4056 14.6945 18.6667 14.0667 18.6667 13.3334C18.6667 12.6 18.4056 11.9722 17.8834 11.45C17.3612 10.9278 16.7334 10.6667 16 10.6667C15.2667 10.6667 14.6389 10.9278 14.1167 11.45C13.5945 11.9722 13.3334 12.6 13.3334 13.3334C13.3334 14.0667 13.5945 14.6945 14.1167 15.2167C14.6389 15.7389 15.2667 16 16 16ZM16 29.3334C12.4223 26.2889 9.75004 23.4611 7.98337 20.85C6.21671 18.2389 5.33337 15.8222 5.33337 13.6C5.33337 10.2667 6.4056 7.61113 8.55004 5.63335C10.6945 3.65558 13.1778 2.66669 16 2.66669C18.8223 2.66669 21.3056 3.65558 23.45 5.63335C25.5945 7.61113 26.6667 10.2667 26.6667 13.6C26.6667 15.8222 25.7834 18.2389 24.0167 20.85C22.25 23.4611 19.5778 26.2889 16 29.3334Z" fill="white"/>
</g>
</svg>
